<svg width="25" height="25" viewBox="0 0 25 25" fill="none" xmlns="http://www.w3.org/2000/svg">
<path fill-rule="evenodd" clip-rule="evenodd" d="M16.5769 15.6006H17.6631L24.5244 22.4756L22.4756 24.5244L15.6006 17.6631V16.5769L15.2294 16.1919C13.6619 17.5394 11.6269 18.3506 9.41315 18.3506C4.4769 18.3506 0.475647 14.3494 0.475647 9.41312C0.475647 4.47687 4.4769 0.475616 9.41315 0.475616C14.3494 0.475616 18.3506 4.47687 18.3506 9.41312C18.3506 11.6269 17.5394 13.6619 16.1919 15.2294L16.5769 15.6006ZM3.22567 9.41313C3.22567 12.8369 5.98942 15.6006 9.41317 15.6006C12.8369 15.6006 15.6007 12.8369 15.6007 9.41313C15.6007 5.98938 12.8369 3.22562 9.41317 3.22562C5.98942 3.22562 3.22567 5.98938 3.22567 9.41313Z" fill="#BCBCBC"/>
</svg>
